{
  "accessors": [
    {
      "bufferView": 2,
      "componentType": 5126,
      "count": 353,
      "max": [7.611814022064209, 7.611814022064209, 1.4183800220489502],
      "min": [-7.611814022064209, -7.611814022064209, -1.2288320064544678],
      "type": "VEC3"
    },
    {
      "bufferView": 2,
      "byteOffset": 4236,
      "componentType": 5126,
      "count": 353,
      "max": [0.8607527613639832, 0.8607527613639832, 1.0],
      "min": [-0.8607527613639832, -0.8607527613639832, -0.6857142448425293],
      "type": "VEC3"
    },
    {
      "bufferView": 1,
      "componentType": 5126,
      "count": 353,
      "max": [0.881762683391571, 0.9075770974159241],
      "min": [0.10573363304138184, 0.09031102061271667],
      "type": "VEC2"
    },
    {
      "bufferView": 0,
      "componentType": 5125,
      "count": 2016,
      "type": "SCALAR"
    },
    {
      "bufferView": 2,
      "byteOffset": 8472,
      "componentType": 5126,
      "count": 257,
      "max": [7.611814022064209, 7.611814022064209, 0.9482319951057434],
      "min": [-7.611814022064209, -7.611814022064209, -1.2288320064544678],
      "type": "VEC3"
    },
    {
      "bufferView": 2,
      "byteOffset": 11556,
      "componentType": 5126,
      "count": 257,
      "max": [0.8444059491157532, 0.848190188407898, -0.5231674313545227],
      "min": [-0.8522300124168396, -0.848190188407898, -1.0],
      "type": "VEC3"
    },
    {
      "bufferView": 1,
      "byteOffset": 2824,
      "componentType": 5126,
      "count": 257,
      "max": [0.9060765504837036, 0.9280860424041748],
      "min": [0.08365632593631744, 0.07393738627433777],
      "type": "VEC2"
    },
    {
      "bufferView": 0,
      "byteOffset": 8064,
      "componentType": 5125,
      "count": 1440,
      "type": "SCALAR"
    }
  ],
  "asset": {
    "extras": {
      "author": "Thomas Flynn (https://sketchfab.com/nebulousflynn)",
      "license": "CC-BY-4.0 (http://creativecommons.org/licenses/by/4.0/)",
      "source": "https://sketchfab.com/3d-models/polychrome-dish-60a1d227b99b4399aaf80c1f3ac83860",
      "title": "Polychrome Dish"
    },
    "generator": "Sketchfab-12.65.0",
    "version": "2.0"
  },
  "bufferViews": [
    {
      "buffer": 0,
      "byteLength": 13824,
      "name": "floatBufferViews",
      "target": 34963
    },
    {
      "buffer": 0,
      "byteLength": 4880,
      "byteOffset": 13824,
      "byteStride": 8,
      "name": "floatBufferViews",
      "target": 34962
    },
    {
      "buffer": 0,
      "byteLength": 14640,
      "byteOffset": 18704,
      "byteStride": 12,
      "name": "floatBufferViews",
      "target": 34962
    }
  ],
  "buffers": [
    {
      "byteLength": 33344,
      "uri": "scene.bin"
    }
  ],
  "extensionsUsed": ["KHR_materials_clearcoat"],
  "images": [
    {
      "uri": "textures/orangePlate.png"
    },
    {
      "uri": "textures/Reverse_clearcoat.png"
    },
    {
      "uri": "textures/Reverse_baseColor.jpeg"
    },
    {
      "uri": "textures/Obverse_baseColor.jpeg"
    }
  ],
  "materials": [
    {
      "doubleSided": true,
      "extensions": {
        "KHR_materials_clearcoat": {
          "clearcoatFactor": 1.0,
          "clearcoatRoughnessFactor": 0.08,
          "clearcoatTexture": {
            "index": 1
          }
        }
      },
      "name": "Reverse",
      "pbrMetallicRoughness": {
        "baseColorTexture": {
          "index": 0
        },
        "metallicFactor": 0.0,
        "roughnessFactor": 0.5
      }
    },
    {
      "doubleSided": true,
      "extensions": {
        "KHR_materials_clearcoat": {
          "clearcoatFactor": 1.0,
          "clearcoatRoughnessFactor": 0.08
        }
      },
      "name": "Obverse",
      "pbrMetallicRoughness": {
        "baseColorTexture": {
          "index": 2
        },
        "metallicFactor": 0.0,
        "roughnessFactor": 0.5
      }
    }
  ],
  "meshes": [
    {
      "name": "Object_0",
      "primitives": [
        {
          "attributes": {
            "NORMAL": 1,
            "POSITION": 0,
            "TEXCOORD_0": 2
          },
          "indices": 3,
          "material": 0,
          "mode": 4
        }
      ]
    },
    {
      "name": "Object_1",
      "primitives": [
        {
          "attributes": {
            "NORMAL": 5,
            "POSITION": 4,
            "TEXCOORD_0": 6
          },
          "indices": 7,
          "material": 1,
          "mode": 4
        }
      ]
    }
  ],
  "nodes": [
    {
      "children": [1],
      "matrix": [
        0.016393441706895828, 0.0, 0.0, 0.0, 0.0, 3.640075287169215e-18,
        -0.016393441706895828, 0.0, 0.0, 0.016393441706895828,
        3.640075287169215e-18, 0.0, 0.0, 0.0, 0.0, 1.0
      ],
      "name": "Sketchfab_model"
    },
    {
      "children": [2],
      "name": "root"
    },
    {
      "children": [3],
      "matrix": [
        1.0, 0.0, 0.0, 0.0, 0.0, 2.220446049250313e-16, 1.0, 0.0, 0.0, -1.0,
        2.220446049250313e-16, 0.0, 0.0, 0.0, 0.0, 1.0
      ],
      "name": "GLTF_SceneRootNode"
    },
    {
      "children": [4, 5],
      "matrix": [
        1.0, 0.0, 0.0, 0.0, 0.0, -1.685873969314855e-7, 0.9999999999999858, 0.0,
        0.0, -0.9999999999999858, -1.685873969314855e-7, 0.0, 0.0, 0.0, 0.0, 1.0
      ],
      "name": "Circle_0"
    },
    {
      "mesh": 0,
      "name": "Object_4"
    },
    {
      "mesh": 1,
      "name": "Object_5"
    }
  ],
  "samplers": [
    {
      "magFilter": 9729,
      "minFilter": 9987,
      "wrapS": 10497,
      "wrapT": 10497
    }
  ],
  "scene": 0,
  "scenes": [
    {
      "name": "Sketchfab_Scene",
      "nodes": [0]
    }
  ],
  "textures": [
    {
      "sampler": 0,
      "source": 0
    },
    {
      "sampler": 0,
      "source": 0
    },
    {
      "sampler": 0,
      "source": 0
    }
  ]
}
